<svg xmlns="http://www.w3.org/2000/svg" width="30" height="30" fill="none"><path fill="#fff" d="M25.606 25.606a15 15 0 1 0-21.212 0A14.95 14.95 0 0 0 15 30a14.95 14.95 0 0 0 10.606-4.394M23.62 6.388a12.2 12.2 0 0 1 0 17.234 12.2 12.2 0 0 1-17.236 0 12.2 12.2 0 0 1 3.952-19.881A12.2 12.2 0 0 1 15 2.813a12.15 12.15 0 0 1 8.619 3.57zm-5.14 14.251a1.874 1.874 0 0 0 0-2.656L15.498 15l2.983-2.982a1.875 1.875 0 0 0 0-2.656 1.875 1.875 0 0 0-2.657 0l-4.309 4.309a1.874 1.874 0 0 0 0 2.656l4.31 4.31c.351.35.827.548 1.324.548a1.87 1.87 0 0 0 1.332-.55z"/></svg>