<svg xmlns="http://www.w3.org/2000/svg" width="23" height="23" fill="none"><path stroke="#6AB8FF" stroke-linecap="round" stroke-width="1.5" d="M21.9 9.417c-.038-1.366-.168-2.237-.605-2.98-.623-1.057-1.744-1.645-3.985-2.82l-2.083-1.094c-1.829-.96-2.744-1.44-3.727-1.44s-1.898.48-3.727 1.44L5.69 3.617C3.449 4.792 2.328 5.38 1.705 6.437s-.622 2.372-.622 5.003v.122c0 2.629 0 3.944.622 5 .623 1.058 1.744 1.646 3.985 2.822l2.083 1.093c1.83.96 2.744 1.44 3.727 1.44s1.898-.48 3.727-1.44l2.084-1.094c2.24-1.176 3.36-1.763 3.984-2.82.437-.743.566-1.614.605-2.98m-1.025-6.77-4.167 2.083m0 0-.52.26L11.5 11.5m5.208-2.604v3.646m0-3.646L6.813 3.688M11.5 11.5 2.125 6.813M11.5 11.5v9.896"/></svg>