<svg xmlns="http://www.w3.org/2000/svg" width="15" height="15" fill="none"><path fill="#000" fill-rule="evenodd" d="M4.844.063c.293 0 .531.237.531.53v.532h2.656a.531.531 0 1 1 0 1.063H5.375v.53a.531.531 0 1 1-1.062 0v-.53H3.25a2.125 2.125 0 0 0-2.125 2.125v7.437c0 1.174.951 2.125 2.125 2.125h2.656a.531.531 0 1 1 0 1.063H3.25A3.19 3.19 0 0 1 .063 11.75V4.313A3.187 3.187 0 0 1 3.25 1.124h1.063V.594c0-.294.237-.531.53-.531m5.312 0c.294 0 .531.237.531.53v.532h1.063a3.19 3.19 0 0 1 3.188 3.188v1.062a.531.531 0 1 1-1.063 0V4.313a2.125 2.125 0 0 0-2.125-2.125h-1.062v.53a.531.531 0 1 1-1.063 0V.595c0-.294.238-.531.531-.531M3.25 4.843a.531.531 0 1 0 0 1.063h8.5a.531.531 0 0 0 0-1.062zm11.2 6.383c.29.049.485.323.436.612a3.72 3.72 0 0 1-5.792 2.433v.135a.531.531 0 1 1-1.063 0v-1.594c0-.293.238-.53.531-.53h1.594a.531.531 0 1 1 0 1.062h-.531a2.657 2.657 0 0 0 4.214-1.682.53.53 0 0 1 .611-.436m-5.85-.45a2.657 2.657 0 0 1 4.213-1.682h-.532a.531.531 0 0 0 0 1.062h1.594a.53.53 0 0 0 .531-.531V8.031a.531.531 0 1 0-1.062 0v.136A3.72 3.72 0 0 0 7.552 10.6a.531.531 0 0 0 1.047.175M3.515 9.093a.797.797 0 1 0 0-1.594.797.797 0 0 0 0 1.594m.797 2.39a.797.797 0 1 1-1.594 0 .797.797 0 0 1 1.594 0" clip-rule="evenodd"/></svg>