<svg xmlns="http://www.w3.org/2000/svg" width="32" height="33" fill="none"><path fill="#000" fill-rule="evenodd" d="M.832 9.817C0 11.332 0 13.164 0 16.825v2.435c0 6.24 0 9.362 1.875 11.3C3.75 32.5 6.766 32.5 12.8 32.5h6.4c6.034 0 9.051 0 10.925-1.94C31.998 28.623 32 25.503 32 19.26v-2.434c0-3.662 0-5.492-.832-7.01-.829-1.518-2.347-2.458-5.382-4.343l-3.2-1.986C19.378 1.495 17.773.5 16 .5s-3.376.995-6.586 2.987l-3.2 1.986C3.18 7.358 1.662 8.298.832 9.817M14.8 26.1a1.2 1.2 0 1 0 2.4 0v-4.8a1.2 1.2 0 1 0-2.4 0z" clip-rule="evenodd"/></svg>