<svg xmlns="http://www.w3.org/2000/svg" width="25" height="19" fill="none"><path fill="#A9D6FF" d="M0 .846v.962h7.692v.961H1.923v.962H0v.961h6.73v.962H1.924v.961H0v.962h5.77v.961H1.922V9.5H0v.961h4.808v.962H1.923v3.846c0 .577.385.962.962.962h.961c.192-1.635 1.635-2.975 3.366-2.975 1.73 0 3.173 1.244 3.365 2.975h2.884c.578 0 .962-.385.962-.962V1.808c0-.577-.384-.962-.962-.962zm16.346 3.846c-.577 0-.961.385-.961.962v9.615c0 .481.384.962.961.962.192-1.635 1.635-2.975 3.366-2.975 1.73 0 3.173 1.244 3.365 2.975h.961c.577 0 .962-.385.962-.962v-4.808c0-.865-.782-1.923-.782-1.923l-2.103-2.884c-.48-.577-.769-.962-1.442-.962zm1.923 1.923h2.314c.192 0 .391.181.391.181l2.012 2.794c.193.289.392.589.392.781h-5.109zM7.212 14.49a2.23 2.23 0 0 0-2.224 2.223 2.23 2.23 0 0 0 2.224 2.224 2.23 2.23 0 0 0 2.224-2.224 2.23 2.23 0 0 0-2.224-2.223m12.5 0a2.23 2.23 0 0 0-2.224 2.223 2.23 2.23 0 0 0 2.224 2.224 2.23 2.23 0 0 0 2.224-2.224 2.23 2.23 0 0 0-2.224-2.223"/></svg>