<svg xmlns="http://www.w3.org/2000/svg" width="17" height="23" fill="none"><path fill="#000" d="M3.292 1.125v1.042A2.083 2.083 0 0 0 5.375 4.25h6.25a2.083 2.083 0 0 0 2.083-2.083V1.125h1.042a2.083 2.083 0 0 1 2.083 2.083v11.459a6.25 6.25 0 0 1-6.25 6.25H2.25a2.083 2.083 0 0 1-2.083-2.084V3.208A2.083 2.083 0 0 1 2.25 1.125zM8.5 12.583H5.375a1.042 1.042 0 0 0 0 2.084H8.5a1.042 1.042 0 0 0 0-2.084m3.125-4.166h-6.25a1.042 1.042 0 0 0-.122 2.076l.122.007h6.25a1.041 1.041 0 1 0 0-2.083M10.583.083a1.041 1.041 0 0 1 .122 2.076l-.122.008H6.417A1.042 1.042 0 0 1 6.295.09l.122-.008z"/></svg>