<svg xmlns="http://www.w3.org/2000/svg" width="36" height="29" fill="none"><path stroke="#000" stroke-linecap="round" stroke-linejoin="round" stroke-width="1.5" d="M24.667 20.767V4.917a3.333 3.333 0 0 0-3.334-3.334H4.667a3.333 3.333 0 0 0-3.334 3.334v15A1.667 1.667 0 0 0 3 21.583h1.183a4.167 4.167 0 0 1 7.634 0h12.366q.183-.441.484-.816m0 0a4.151 4.151 0 0 1 7.15.816h2.85v-4.816c0-1.21-.328-2.397-.95-3.434l-2.05-3.416L30.15 7.4a1.67 1.67 0 0 0-1.433-.817h-4.05z"/><path stroke="#000" stroke-linecap="round" stroke-linejoin="round" stroke-width="1.5" d="M16.333 13.25H8m8.333-5H8m4.167 15a4.167 4.167 0 1 1-8.334.01 4.167 4.167 0 0 1 8.334-.01m20 0a4.167 4.167 0 1 1-7.984-1.667q.183-.441.484-.816a4.151 4.151 0 0 1 7.15.816c.233.525.353 1.094.35 1.667"/></svg>